<bug id='36823' author='skeydan' open_date='2020-02-17T13:54:17Z' closed_time='2020-02-18T08:01:43Z'>
	<summary>decode_wav_op.cc:55 : Invalid argument: Bad file size for WAV: Expected 16 or 18, but got 40</summary>
	<description>
System information

Have I written custom code (as opposed to using a stock
example script provided in TensorFlow): yes
OS Platform and Distribution (e.g., Linux Ubuntu 16.04): Linux Fedora 31
Mobile device (e.g. iPhone 8, Pixel 2, Samsung Galaxy) if the issue happens on mobile device: N/A
TensorFlow installed from (source or binary): binary
TensorFlow version (use command below): 2.1
Python version: 3.7
Bazel version (if compiling from source): N/A
GCC/Compiler version (if compiling from source): N/A
CUDA/cuDNN version: N/A
GPU model and memory: N/A

Describe the current behavior
&lt;denchmark-code&gt;import tensorflow as tf

# from https://github.com/Athospd/wavesurfer/blob/master/data-raw/Glaucidium-minutissimum-22180.wav
file = tf.io.read_file("/tmp/Glaucidium-minutissimum-22180.wav")
tf.audio.decode_wav(file)
&lt;/denchmark-code&gt;

error:
&lt;denchmark-code&gt;2020-02-17 14:20:35.070542: W tensorflow/core/framework/op_kernel.cc:1675] OP_REQUIRES failed at decode_wav_op.cc:55 : Invalid argument: Bad file size for WAV: Expected 16 or 18, but got40
&lt;/denchmark-code&gt;

Describe the expected behavior
No error
Code to reproduce the issue
See above.
Other info / logs
File is played without problems by e.g. sox.
File info:
&lt;denchmark-code&gt;Input File     : 'Glaucidium-minutissimum-22180.wav'
Channels       : 1
Sample Rate    : 16000
Precision      : 16-bit
Duration       : 00:00:46.29 = 740624 samples ~ 3471.68 CDDA sectors
File Size      : 1.48M
Bit Rate       : 256k
Sample Encoding: 16-bit Signed Integer PCM
&lt;/denchmark-code&gt;

Also, the number of samples dòes not seem to be the problem, as after a simple resampling
&lt;denchmark-code&gt;sox Glaucidium-minutissimum-22180.wav -r 16000 o5.wav
&lt;/denchmark-code&gt;

the new output is decoded without error.
Source location is



tensorflow/tensorflow/core/lib/wav/wav_io.cc


         Line 238
      in
      e4c9ded






 "Bad file size for WAV: Expected 16 or 18, but got", format_chunk_size); 





but it is not clear to me what exactly is going on, so it would be great if this could be investigated. Thanks!
	</description>
	<comments>
		<comment id='1' author='skeydan' date='2020-02-17T23:26:37Z'>
		The file is not a regular WAVE_FORMAT_PCM (this is currently the only one supported by TF), but instead an instance of WAVE_FORMAT_EXTENSIBLE &lt;denchmark-link:https://docs.microsoft.com/en-us/windows/win32/api/mmreg/ns-mmreg-waveformatextensible&gt;https://docs.microsoft.com/en-us/windows/win32/api/mmreg/ns-mmreg-waveformatextensible&lt;/denchmark-link&gt;
 ; see bytes 21 and 22 which contain  instead of . Therefore, TensorFlow cannot handle it (but yes, the error message is suboptimal).
		</comment>
		<comment id='2' author='skeydan' date='2020-02-18T08:01:43Z'>
		Many thanks for clarifying!
		</comment>
		<comment id='3' author='skeydan' date='2020-02-18T08:01:45Z'>
		Are you satisfied with the resolution of your issue?
&lt;denchmark-link:https://docs.google.com/forms/d/e/1FAIpQLSfaP12TRhd9xSxjXZjcZFNXPGk4kc1-qMdv3gc6bEP90vY1ew/viewform?entry.85265664=Yes&amp;entry.2137816233=https://github.com/tensorflow/tensorflow/issues/36823&gt;Yes&lt;/denchmark-link&gt;

&lt;denchmark-link:https://docs.google.com/forms/d/e/1FAIpQLSfaP12TRhd9xSxjXZjcZFNXPGk4kc1-qMdv3gc6bEP90vY1ew/viewform?entry.85265664=No&amp;entry.2137816233=https://github.com/tensorflow/tensorflow/issues/36823&gt;No&lt;/denchmark-link&gt;

		</comment>
	</comments>
</bug>